<?xml version="1.0" standalone="no"?>
<!DOCTYPE svg PUBLIC "-//W3C//DTD SVG 20010904//EN"
 "http://www.w3.org/TR/2001/REC-SVG-20010904/DTD/svg10.dtd">
<svg version="1.0" xmlns="http://www.w3.org/2000/svg"
 width="512.000000pt" height="512.000000pt" viewBox="0 0 512.000000 512.000000"
 preserveAspectRatio="xMidYMid meet">

<g transform="translate(0.000000,512.000000) scale(0.100000,-0.100000)"
fill="#000000" stroke="none">
<path d="M2355 5110 c-412 -35 -839 -179 -1173 -396 l-104 -67 -189 189 -189
189 125 -233 c69 -129 125 -237 125 -240 -1 -4 -26 -27 -56 -52 -30 -25 -103
-93 -161 -153 -90 -91 -108 -105 -122 -95 -9 7 -41 33 -71 59 -30 25 -60 49
-67 53 -7 4 10 -41 37 -99 l50 -107 -59 -81 c-254 -351 -419 -756 -475 -1172
-56 -419 -9 -836 140 -1244 80 -219 240 -501 394 -696 84 -106 314 -334 420
-416 614 -476 1387 -651 2136 -484 373 83 717 246 1023 483 107 83 337 311
421 417 433 547 627 1251 534 1940 -60 444 -254 899 -534 1250 -399 501 -994
842 -1633 936 -152 22 -429 31 -572 19z m884 -1024 c14 -3 77 -10 139 -17 62
-6 111 -13 109 -15 -2 -3 -247 -34 -268 -34 -4 0 -12 -58 -19 -130 -7 -71 -16
-130 -20 -130 -4 0 -13 59 -20 130 -7 72 -15 130 -19 130 -21 0 -266 31 -268
34 -2 2 47 9 109 15 184 19 164 3 178 139 6 64 14 124 17 132 4 8 13 -44 21
-117 15 -130 15 -132 41 -137z m-886 12 l-37 -38 -38 37 -38 37 37 38 37 38
38 -37 38 -37 -37 -38z m1624 50 c18 -18 33 -37 33 -43 0 -6 -15 -25 -33 -43
l-33 -32 -39 40 -39 40 34 35 c19 19 36 35 39 35 3 0 20 -14 38 -32z m-1122
-1080 c457 -433 845 -808 863 -833 56 -77 110 -186 138 -280 24 -79 27 -108
28 -235 1 -164 -12 -232 -70 -358 -105 -230 -322 -408 -572 -469 -95 -23 -295
-23 -387 2 -200 52 -355 156 -500 335 -188 234 -426 668 -810 1480 -87 184
-187 394 -223 465 -36 72 -80 164 -99 205 l-34 75 34 -35 c19 -19 263 -291
542 -605 279 -313 512 -574 517 -580 16 -16 -11 35 -448 847 -228 424 -413
773 -410 775 2 2 199 -165 437 -371 239 -205 435 -373 437 -371 2 1 -67 169
-154 371 -86 203 -160 380 -165 393 l-9 23 28 -23 c15 -13 401 -378 857 -811z
m534 465 l31 -37 -37 -38 -37 -38 -33 32 c-18 18 -33 36 -33 42 0 12 60 76 71
76 4 0 21 -17 38 -37z m1053 -588 c5 -5 407 -54 447 -55 8 0 12 -2 9 -5 -2 -3
-105 -16 -228 -30 -123 -14 -227 -30 -230 -35 -3 -6 -17 -112 -30 -236 -15
-141 -27 -218 -31 -203 -4 13 -17 119 -30 234 -12 116 -22 211 -23 212 -1 1
-105 14 -231 28 -125 14 -231 27 -233 30 -3 3 0 5 6 5 19 0 456 50 457 53 1 1
12 94 24 207 12 113 25 219 28 235 5 19 16 -52 33 -202 14 -128 28 -235 32
-238z m-4194 -192 l-38 -37 -35 34 c-19 19 -35 38 -35 44 0 6 14 25 32 43 l32
33 40 -40 41 -40 -37 -37z m776 -340 c0 -1 66 -8 146 -17 235 -26 235 -27 35
-50 l-180 -21 -21 -180 c-12 -107 -23 -170 -27 -155 -3 14 -13 95 -22 180 -9
85 -17 155 -18 156 -1 1 -83 9 -181 20 -113 11 -170 21 -155 25 13 4 94 15
179 24 85 9 156 17 157 18 1 1 9 70 18 152 9 83 19 161 22 175 4 15 14 -46 26
-150 11 -96 20 -176 21 -177z m3519 -735 l-37 -38 -38 37 -38 37 37 38 37 38
38 -37 38 -37 -37 -38z m-3733 -303 l34 -35 -37 -37 -37 -37 -35 34 c-19 19
-35 38 -35 44 0 14 51 66 65 66 6 0 26 -16 45 -35z m837 -97 l33 -32 -37 -38
-37 -38 -38 37 -38 37 32 33 c18 18 36 33 42 33 6 0 25 -14 43 -32z m1543
-803 l34 -35 -37 -38 -37 -37 -37 37 -37 38 34 35 c19 19 37 35 40 35 3 0 21
-16 40 -35z"/>
</g>
</svg>
