<?xml version="1.0" standalone="no"?>
<!DOCTYPE svg PUBLIC "-//W3C//DTD SVG 20010904//EN"
 "http://www.w3.org/TR/2001/REC-SVG-20010904/DTD/svg10.dtd">
<svg version="1.0" xmlns="http://www.w3.org/2000/svg"
 width="512.000000pt" height="512.000000pt" viewBox="0 0 512.000000 512.000000"
 preserveAspectRatio="xMidYMid meet">

<g transform="translate(0.000000,512.000000) scale(0.100000,-0.100000)"
fill="#000000" stroke="none">
<path d="M2331 5109 c-484 -43 -955 -231 -1351 -538 -113 -87 -329 -298 -336
-328 -4 -13 -1 -36 6 -52 11 -28 9 -34 -57 -119 -56 -72 -72 -87 -88 -82 -58
20 -103 -34 -224 -270 -327 -642 -369 -1392 -115 -2064 93 -245 266 -539 436
-741 164 -193 389 -390 608 -529 100 -64 351 -186 474 -231 294 -108 651 -164
966 -151 567 23 1083 215 1515 563 121 97 326 306 417 423 272 352 444 758
513 1210 22 146 31 452 15 510 -16 58 -72 114 -130 130 -48 13 -66 10 -310
-55 -105 -28 -137 -26 -187 11 -53 40 -57 71 -34 256 71 564 142 1171 142
1214 2 103 -24 165 -97 237 -58 57 -131 87 -215 87 -32 0 -357 -36 -722 -81
-730 -88 -715 -88 -760 -26 -42 55 -41 75 8 257 25 93 45 181 45 197 -1 71
-66 152 -138 173 -43 11 -244 11 -381 -1z m2019 -691 c51 -26 90 -84 90 -134
0 -17 -36 -327 -80 -689 -44 -362 -80 -681 -80 -710 0 -38 8 -68 31 -113 47
-96 126 -150 231 -159 47 -5 89 2 227 38 138 36 173 41 183 31 9 -9 12 -51 11
-157 -12 -949 -589 -1806 -1464 -2178 -168 -71 -375 -129 -584 -164 -156 -26
-554 -26 -710 0 -238 39 -465 109 -667 204 l-117 55 -20 67 c-48 159 -110 436
-99 446 2 3 31 -15 64 -38 193 -140 422 -240 660 -291 282 -59 283 -59 409
-52 403 23 688 107 984 291 122 76 230 166 351 292 124 128 218 258 294 404
71 136 83 187 61 271 -20 80 -49 115 -171 209 -54 41 -127 108 -161 149 l-61
73 5 86 c8 125 -28 253 -99 353 -11 15 2 32 100 131 139 141 157 176 157 302
0 143 -7 153 -317 462 l-263 261 -74 22 c-155 47 -252 12 -414 -148 -94 -94
-109 -105 -125 -94 -45 33 -165 82 -226 93 -40 7 -98 9 -139 5 l-69 -6 -69 55
c-38 31 -69 61 -69 68 0 31 485 479 547 504 7 3 31 -8 55 -25 59 -40 100 -52
172 -51 34 0 345 35 691 78 347 43 648 79 670 80 25 1 59 -8 85 -21z m-2536
-452 c22 -9 56 -45 105 -109 39 -53 97 -119 128 -146 34 -31 53 -54 47 -60 -5
-4 -196 -129 -424 -277 -228 -148 -516 -335 -640 -416 -124 -82 -232 -152
-241 -158 -15 -8 -16 -5 -7 33 37 165 155 422 265 576 158 221 370 404 611
528 90 47 106 50 156 29z m1393 -236 c33 -13 497 -472 520 -515 20 -38 20
-122 0 -161 -8 -16 -60 -74 -114 -127 l-98 -97 -342 342 -343 343 98 98 c53
55 111 105 127 113 36 16 113 18 152 4z m-652 -187 c50 -26 139 -110 517 -490
492 -493 487 -487 507 -614 11 -69 1 -149 -27 -211 -11 -24 -90 -151 -176
-283 -137 -209 -157 -244 -152 -270 12 -61 74 -84 120 -42 13 12 88 121 166
242 78 121 144 221 145 223 2 2 34 -28 72 -66 37 -38 102 -94 143 -124 94 -69
101 -78 107 -131 4 -35 -2 -55 -37 -122 -113 -217 -301 -437 -498 -585 -163
-122 -369 -223 -563 -275 l-87 -23 174 267 c105 161 174 277 174 292 0 55 -57
92 -105 67 -14 -8 -93 -120 -190 -268 -92 -140 -183 -272 -203 -293 -105 -109
-266 -142 -422 -85 -51 19 -102 67 -746 712 -740 740 -723 721 -742 843 -20
125 28 268 116 343 49 42 1297 857 1367 893 65 33 85 37 185 34 84 -3 102 -7
155 -34z m-1195 -2189 c590 -590 566 -558 340 -452 -170 80 -317 184 -460 328
-153 153 -239 272 -329 455 -59 119 -96 205 -88 205 1 0 243 -241 537 -536z"/>
<path d="M2351 2969 c-90 -15 -194 -72 -270 -147 -214 -213 -214 -529 -1 -742
212 -213 529 -213 742 0 209 209 208 530 -2 740 -128 129 -287 179 -469 149z"/>
<path d="M1190 2420 c-12 -12 -20 -33 -20 -53 0 -29 14 -47 104 -135 64 -64
111 -102 124 -102 35 0 75 42 75 80 0 28 -13 46 -100 131 -84 83 -105 99 -131
99 -19 0 -40 -8 -52 -20z"/>
<path d="M1675 1935 c-46 -45 -36 -69 77 -182 114 -114 138 -124 183 -78 46
45 36 68 -78 182 -114 114 -137 124 -182 78z"/>
<path d="M2151 1444 c-12 -15 -21 -36 -21 -47 0 -12 41 -61 102 -123 88 -90
106 -104 135 -104 43 0 73 30 73 72 0 27 -15 47 -98 130 -88 88 -102 98 -134
98 -28 0 -42 -7 -57 -26z"/>
</g>
</svg>
