<?xml version="1.0" standalone="no"?>
<!DOCTYPE svg PUBLIC "-//W3C//DTD SVG 20010904//EN"
 "http://www.w3.org/TR/2001/REC-SVG-20010904/DTD/svg10.dtd">
<svg version="1.0" xmlns="http://www.w3.org/2000/svg"
 width="512.000000pt" height="512.000000pt" viewBox="0 0 512.000000 512.000000"
 preserveAspectRatio="xMidYMid meet">

<g transform="translate(0.000000,512.000000) scale(0.100000,-0.100000)"
fill="#000000" stroke="none">
<path d="M2305 5030 c-467 -48 -923 -233 -1305 -529 -103 -79 -326 -299 -401
-396 -240 -305 -393 -613 -482 -970 -57 -229 -71 -349 -71 -605 0 -236 9 -334
50 -531 23 -109 92 -345 98 -337 2 1 25 53 51 113 147 344 477 869 741 1180
38 45 54 75 64 115 27 116 106 301 175 410 78 123 247 312 325 363 l25 16 -10
100 c-5 55 -12 102 -15 104 -3 3 -81 13 -174 23 -97 11 -160 21 -150 25 11 4
86 15 169 23 82 9 152 20 156 24 3 4 14 81 23 172 10 91 20 167 22 169 2 2 4
0 4 -5 1 -29 38 -336 42 -339 2 -3 80 -13 172 -24 92 -10 169 -21 171 -23 3
-2 -73 -12 -168 -22 -94 -10 -173 -19 -175 -21 -5 -5 -24 -157 -20 -161 2 -2
32 15 66 36 117 74 262 137 396 171 47 12 85 28 93 38 20 30 318 252 494 369
194 129 376 236 552 323 70 35 127 66 127 69 0 15 -269 80 -430 105 -125 19
-484 28 -615 15z m-55 -325 l34 -35 -37 -38 -37 -37 -37 37 -37 38 34 35 c19
19 37 35 40 35 3 0 21 -16 40 -35z m-1492 -1042 c-18 -18 -36 -33 -42 -33 -13
0 -66 51 -66 64 0 5 14 25 32 43 l32 33 38 -37 38 -37 -32 -33z"/>
<path d="M3410 4806 c-286 -128 -589 -309 -915 -547 l-130 -94 95 -5 c87 -5
97 -4 120 16 31 27 163 111 290 186 188 110 408 211 585 268 105 33 275 70
326 70 17 0 28 4 25 9 -8 12 -271 141 -288 140 -7 0 -56 -19 -108 -43z"/>
<path d="M3770 4589 c-97 -11 -246 -50 -368 -94 -134 -50 -413 -189 -561 -281
l-125 -77 100 -26 c54 -15 105 -30 112 -35 8 -5 20 -2 30 7 22 19 187 89 274
116 93 28 220 51 284 51 43 0 56 4 66 20 32 51 159 4 214 -80 38 -58 44 -139
15 -205 l-21 -47 -54 4 c-89 7 -169 80 -183 164 -5 30 -9 34 -37 34 -85 0
-274 -47 -382 -95 l-59 -26 53 -29 c228 -125 429 -315 558 -530 22 -36 45 -78
53 -95 l13 -30 13 25 c22 42 74 198 92 274 21 86 23 270 5 304 -7 12 -9 22 -4
22 5 0 27 16 49 35 l41 35 10 -28 c65 -164 23 -435 -111 -735 l-33 -72 23 -80
c12 -44 26 -93 30 -108 8 -27 13 -20 92 110 156 259 279 535 337 758 31 119
43 318 25 406 -11 50 -18 61 -79 116 -37 33 -106 90 -154 127 l-87 67 -78 4
c-43 2 -112 0 -153 -6z"/>
<path d="M4441 4160 c0 -33 1 -34 10 -11 6 16 6 28 -1 35 -7 7 -10 -1 -9 -24z"/>
<path d="M4431 3997 c-1 -41 -46 -230 -74 -312 -78 -226 -209 -483 -388 -760
l-77 -120 0 -93 0 -93 96 128 c228 307 452 683 566 951 l35 82 -45 42 c-49 45
-66 73 -95 152 -15 42 -18 46 -18 23z"/>
<path d="M4666 3673 c-148 -344 -391 -740 -696 -1132 -102 -132 -109 -144
-134 -232 -61 -213 -165 -397 -318 -567 l-48 -54 42 -30 c23 -17 64 -53 90
-79 27 -27 51 -49 53 -49 6 0 397 419 486 520 103 118 291 346 385 465 186
238 464 635 464 664 0 28 -92 285 -138 386 -69 151 -86 175 -125 175 -31 0
-34 -4 -61 -67z m-416 -988 l34 -35 -37 -38 -37 -37 -37 37 -37 38 34 35 c19
19 37 35 40 35 3 0 21 -16 40 -35z"/>
<path d="M4920 2867 c-110 -161 -330 -453 -450 -599 l-72 -88 17 -147 c9 -82
17 -149 18 -150 1 0 77 -9 170 -19 92 -10 164 -21 160 -24 -5 -4 -80 -15 -168
-24 -88 -9 -160 -18 -162 -19 -1 -1 -9 -72 -18 -157 -9 -85 -20 -163 -24 -174
-4 -11 -15 54 -25 158 -16 147 -22 176 -35 176 -9 1 -65 7 -126 14 l-110 13
-162 -167 c-89 -92 -173 -181 -187 -197 l-26 -31 35 -75 c181 -393 7 -858
-389 -1037 -109 -50 -179 -64 -316 -64 -100 0 -141 4 -203 22 -85 24 -190 74
-252 119 l-40 30 -110 -81 c-60 -44 -179 -126 -263 -182 -110 -74 -148 -104
-135 -107 188 -54 611 -68 872 -28 284 43 501 111 757 236 617 303 1089 857
1293 1520 38 126 65 247 87 400 25 168 25 515 0 680 -10 66 -21 127 -25 137
-4 11 -35 -26 -111 -135z m-792 -1994 c-18 -18 -36 -33 -42 -33 -6 0 -25 14
-43 32 l-33 32 37 38 37 38 38 -37 38 -37 -32 -33z"/>
<path d="M933 2708 c-284 -379 -531 -810 -648 -1131 l-28 -78 24 -52 c34 -73
116 -223 153 -278 l31 -46 0 166 c0 157 2 173 34 296 56 213 149 436 278 664
83 145 179 298 209 331 21 23 23 35 22 123 0 53 -2 97 -3 97 -1 0 -34 -42 -72
-92z"/>
<path d="M945 2317 c-200 -330 -330 -646 -366 -886 -17 -118 -7 -281 20 -354
53 -138 174 -228 320 -239 34 -3 35 -1 42 39 11 58 31 93 82 140 50 46 96 63
174 63 88 0 167 -44 210 -117 14 -24 29 -43 35 -43 20 0 239 95 345 150 155
80 374 213 365 221 -4 3 -41 14 -82 24 -41 10 -83 22 -93 27 -14 7 -52 -5
-152 -46 -380 -159 -656 -160 -816 -5 -133 130 -153 362 -58 659 29 87 89 231
106 251 13 16 2 71 -45 226 -6 18 -20 0 -87 -110z m-97 -964 c-18 -18 -36 -33
-42 -33 -6 0 -25 14 -43 32 l-33 32 37 38 37 38 38 -37 38 -37 -32 -33z"/>
<path d="M4247 2005 c-70 -80 -120 -145 -112 -145 8 0 59 5 113 11 l99 11 14
134 c8 74 14 134 14 134 -1 0 -58 -65 -128 -145z"/>
<path d="M1111 2009 c-108 -273 -115 -506 -20 -622 15 -18 51 -46 80 -62 52
-29 58 -30 189 -30 100 0 153 5 205 19 83 22 255 86 255 95 0 3 -30 21 -66 40
-214 111 -429 323 -562 554 l-49 87 -32 -81z"/>
<path d="M2200 1169 c-191 -126 -486 -277 -664 -340 -37 -13 -70 -28 -71 -34
-1 -5 -8 -30 -15 -53 -24 -91 -138 -172 -239 -172 -80 0 -175 52 -213 115 -17
30 -25 34 -81 40 -34 4 -82 14 -107 21 -24 7 -46 12 -48 10 -5 -5 201 -186
272 -239 l59 -44 57 18 c166 52 387 145 560 236 130 69 324 184 328 195 2 4 9
8 15 9 7 0 57 30 112 67 96 65 100 69 107 112 4 25 10 60 13 78 3 17 2 32 -2
32 -4 -1 -42 -23 -83 -51z"/>
<path d="M2162 864 c-94 -61 -103 -69 -98 -93 3 -14 8 -57 11 -96 4 -38 9 -77
11 -86 4 -13 37 -20 179 -34 96 -10 173 -20 171 -22 -2 -2 -79 -12 -171 -23
-93 -11 -171 -23 -175 -27 -9 -10 -34 -252 -27 -260 6 -5 159 98 320 215 79
57 87 66 75 82 -103 139 -149 233 -170 344 -7 36 -15 66 -18 66 -3 0 -52 -30
-108 -66z"/>
<path d="M1940 728 c-149 -94 -467 -244 -652 -308 -38 -13 -68 -26 -68 -29 0
-7 153 -93 238 -135 83 -42 260 -112 344 -136 l77 -23 76 49 c66 43 75 53 74
79 0 44 -26 255 -32 261 -2 3 -80 13 -172 24 -92 11 -169 21 -171 23 -2 2 75
12 170 22 199 20 180 6 191 138 4 42 3 77 -1 76 -5 0 -38 -19 -74 -41z"/>
</g>
</svg>
