<?xml version="1.0" standalone="no"?>
<!DOCTYPE svg PUBLIC "-//W3C//DTD SVG 20010904//EN"
 "http://www.w3.org/TR/2001/REC-SVG-20010904/DTD/svg10.dtd">
<svg version="1.0" xmlns="http://www.w3.org/2000/svg"
 width="512.000000pt" height="512.000000pt" viewBox="0 0 512.000000 512.000000"
 preserveAspectRatio="xMidYMid meet">

<g transform="translate(0.000000,512.000000) scale(0.100000,-0.100000)"
fill="#000000" stroke="none">
<path d="M2485 5058 c-103 -76 -267 -240 -350 -349 -172 -228 -280 -477 -337
-774 -20 -106 -21 -143 -25 -1055 l-3 -945 175 405 174 405 1 141 c0 152 10
226 42 319 54 157 121 268 223 371 59 58 159 134 179 134 19 0 136 -92 193
-153 108 -116 195 -282 229 -435 8 -37 17 -139 20 -227 l5 -160 166 -393 c91
-216 168 -390 170 -388 3 2 5 415 5 918 0 775 -3 928 -16 1015 -59 386 -218
711 -485 987 -94 97 -262 236 -284 236 -7 0 -43 -23 -82 -52z"/>
<path d="M3000 445 c0 -201 -14 -180 113 -168 l67 6 0 168 0 169 -90 0 -90 0
0 -175z"/>
<path d="M2477 353 c-4 -3 -7 -82 -7 -175 l0 -168 90 0 90 0 0 175 0 175 -83
0 c-46 0 -87 -3 -90 -7z"/>
<path d="M1191 268 c-6 -36 -11 -70 -11 -76 0 -9 63 -12 236 -12 l236 0 -7 43
c-13 85 -2 81 -220 92 -60 3 -135 8 -166 11 l-57 6 -11 -64z"/>
<path d="M3705 314 c-99 -7 -188 -13 -197 -13 -12 -1 -19 -13 -23 -38 -3 -21
-8 -48 -11 -60 l-4 -23 236 0 237 0 -7 53 c-11 81 -17 97 -35 96 -9 -1 -97 -8
-196 -15z"/>
</g>
</svg>
