<?xml version="1.0" standalone="no"?>
<!DOCTYPE svg PUBLIC "-//W3C//DTD SVG 20010904//EN"
 "http://www.w3.org/TR/2001/REC-SVG-20010904/DTD/svg10.dtd">
<svg version="1.0" xmlns="http://www.w3.org/2000/svg"
 width="512.000000pt" height="512.000000pt" viewBox="0 0 512.000000 512.000000"
 preserveAspectRatio="xMidYMid meet">

<g transform="translate(0.000000,512.000000) scale(0.100000,-0.100000)"
fill="#000000" stroke="none">
<path d="M2390 5113 c-30 -2 -107 -10 -170 -19 -450 -60 -869 -236 -1240 -522
-110 -85 -347 -323 -432 -433 -237 -307 -403 -654 -482 -1011 -169 -760 4
-1529 483 -2148 80 -104 309 -336 410 -415 369 -290 772 -465 1236 -537 185
-28 521 -30 700 -4 473 69 874 237 1245 525 104 80 336 309 416 411 291 369
473 796 540 1265 24 165 24 505 0 670 -20 142 -47 268 -82 385 -29 97 -90 268
-104 290 -7 12 -27 -3 -98 -73 -62 -60 -97 -87 -113 -87 -18 0 -65 41 -178
154 -177 177 -174 169 -86 256 l55 54 -47 48 -47 48 -161 -159 c-98 -98 -171
-162 -188 -166 -63 -16 -90 0 -214 126 -191 194 -191 192 28 414 l159 161 -48
47 -48 47 -59 -60 c-34 -34 -68 -60 -80 -60 -30 0 -325 298 -325 329 0 17 29
53 97 122 53 54 94 101 91 105 -3 3 -61 28 -129 55 -348 141 -745 205 -1129
182z m1127 -1164 c36 -13 458 -433 478 -475 19 -41 19 -107 0 -142 -33 -62
-25 -66 -175 91 -78 81 -147 147 -154 147 -6 0 -32 -20 -56 -45 -31 -32 -44
-53 -42 -68 4 -34 -34 -77 -68 -77 -34 0 -70 34 -70 66 0 34 32 66 68 68 23 1
44 14 77 46 25 24 45 49 45 54 0 6 -64 74 -141 152 -91 91 -139 146 -134 154
21 34 117 50 172 29z m-1355 -394 c179 -27 367 -90 525 -177 85 -47 212 -135
261 -181 l33 -32 -21 50 c-12 27 -24 77 -27 111 -5 57 -4 64 20 88 55 55 119
21 132 -69 9 -62 33 -110 77 -152 35 -34 103 -63 148 -63 15 0 39 -9 54 -21
33 -26 36 -79 6 -109 -28 -28 -117 -27 -191 4 l-56 23 63 -86 c213 -287 314
-620 301 -981 -7 -176 -29 -296 -83 -451 -124 -357 -377 -659 -707 -847 -264
-150 -590 -221 -890 -194 -128 12 -329 53 -352 72 -7 5 -15 8 -18 5 -4 -3 -5
-2 -2 1 2 4 -16 30 -41 58 -59 67 -118 187 -138 278 -16 73 -16 73 9 122 44
87 30 194 -49 366 -24 52 -51 115 -60 140 -43 121 -171 190 -355 190 -54 0
-70 4 -75 16 -13 33 -5 74 19 102 42 50 93 64 253 70 l142 5 0 137 c0 223 54
469 139 638 l31 62 -24 15 c-18 12 -25 28 -29 67 -13 103 -81 199 -176 248
-49 25 -152 50 -206 50 l-39 0 39 41 c123 127 363 272 563 339 86 29 245 65
322 73 91 10 314 5 402 -8z m-1775 -1447 c-3 -8 -6 -5 -6 6 -1 11 2 17 5 13 3
-3 4 -12 1 -19z m0 -190 c-3 -8 -6 -5 -6 6 -1 11 2 17 5 13 3 -3 4 -12 1 -19z"/>
<path d="M1521 3177 c-19 -7 -43 -24 -54 -39 -22 -29 -34 -111 -23 -154 l7
-27 32 39 c17 21 62 71 99 110 38 39 65 74 61 77 -10 11 -85 7 -122 -6z"/>
<path d="M2556 3038 c-32 -46 -8 -162 46 -229 25 -30 91 -69 117 -69 57 0 56
14 -8 91 -34 40 -79 108 -101 151 -38 76 -39 78 -54 56z"/>
<path d="M1593 2955 c-37 -16 -66 -55 -57 -78 15 -41 100 -32 138 14 32 37 32
44 4 63 -27 19 -43 19 -85 1z"/>
<path d="M3033 2838 c-28 -36 -23 -47 34 -68 31 -11 58 -19 60 -16 9 9 -26 75
-45 85 -27 14 -37 14 -49 -1z"/>
<path d="M2535 2399 c-20 -24 -25 -41 -23 -68 7 -79 134 -108 247 -56 l54 26
-73 35 c-40 19 -93 48 -117 64 -24 17 -48 30 -53 30 -4 0 -20 -14 -35 -31z"/>
<path d="M3245 2030 c-32 -12 -91 -83 -106 -126 -7 -22 -13 -65 -13 -96 -1
-72 25 -112 75 -116 52 -4 92 27 128 99 68 137 18 281 -84 239z"/>
<path d="M2745 1608 c-35 -19 -65 -51 -65 -69 0 -21 29 -39 63 -39 35 0 91 41
95 70 6 42 -47 64 -93 38z"/>
<path d="M3032 1367 c-48 -15 -111 -76 -118 -113 -19 -100 175 -99 251 0 65
85 -13 152 -133 113z"/>
<path d="M3777 4902 c-34 -35 -34 -42 3 -77 l30 -29 30 29 c17 16 30 34 30 40
0 11 -51 65 -61 65 -3 0 -17 -13 -32 -28z m8 -52 c-5 -8 -11 -8 -17 -2 -6 6
-7 16 -3 22 5 8 11 8 17 2 6 -6 7 -16 3 -22z"/>
<path d="M3872 4799 c-13 -16 -21 -35 -19 -42 3 -7 6 -5 6 6 1 9 8 17 16 17
17 0 20 -21 5 -36 -7 -7 -5 -16 8 -27 17 -16 20 -15 52 18 l34 35 -29 30 c-35
37 -44 37 -73 -1z"/>
<path d="M3677 4796 c-14 -21 -14 -25 -2 -30 19 -7 19 -24 0 -28 -12 -2 -11
-7 5 -28 l19 -25 35 34 36 35 -32 33 c-18 18 -35 33 -39 33 -4 0 -14 -11 -22
-24z"/>
<path d="M4565 4780 c-36 -8 -68 -24 -83 -43 -10 -12 -4 -15 37 -20 63 -8 105
-29 159 -81 54 -51 81 -103 89 -168 l6 -51 23 26 c42 49 49 122 17 182 -20 37
-140 144 -169 150 -16 4 -33 8 -39 9 -5 1 -23 0 -40 -4z"/>
<path d="M3970 4705 l-23 -25 21 0 c13 0 22 -6 22 -15 0 -8 -7 -15 -17 -15
-14 0 -14 -2 2 -20 23 -26 37 -25 63 3 28 30 28 48 -1 75 -30 28 -38 28 -67
-3z"/>
<path d="M3763 4690 c-13 -15 -23 -32 -23 -37 0 -4 4 -2 9 6 6 9 16 11 27 7
17 -7 18 -8 3 -20 -14 -10 -15 -15 -4 -29 17 -24 27 -22 60 13 l29 30 -29 30
c-35 37 -44 37 -72 0z"/>
<path d="M3555 4680 l-29 -30 29 -30 c16 -16 34 -30 40 -30 6 0 24 14 40 30
l29 30 -29 30 c-16 17 -34 30 -40 30 -6 0 -24 -13 -40 -30z m23 -32 c-6 -18
-28 -21 -28 -4 0 9 7 16 16 16 9 0 14 -5 12 -12z"/>
<path d="M3863 4598 l-31 -33 27 -32 c15 -18 32 -33 37 -33 6 0 23 14 39 30
l29 30 -35 35 -35 35 -31 -32z m12 -48 c-5 -8 -11 -8 -17 -2 -6 6 -7 16 -3 22
5 8 11 8 17 2 6 -6 7 -16 3 -22z"/>
<path d="M3662 4589 c-17 -18 -29 -36 -26 -38 3 -3 9 1 13 8 5 7 14 10 20 7
14 -9 14 -33 1 -38 -7 -2 -5 -11 4 -23 14 -20 15 -19 45 9 38 37 38 45 2 80
l-29 27 -30 -32z"/>
<path d="M4050 4565 l-34 -35 47 -48 47 -47 45 45 45 46 -48 37 c-27 20 -53
37 -59 37 -5 0 -24 -16 -43 -35z"/>
<path d="M3757 4492 c-15 -15 -27 -32 -27 -38 0 -5 4 -3 9 5 6 9 16 11 27 7
18 -7 18 -8 2 -20 -15 -11 -15 -14 2 -36 l19 -25 30 29 c17 17 31 35 31 41 0
11 -51 65 -61 65 -3 0 -17 -13 -32 -28z"/>
<path d="M4525 4100 l-39 -40 47 -48 47 -47 35 35 35 36 -37 52 c-21 28 -40
52 -43 52 -3 0 -24 -18 -45 -40z"/>
<path d="M4681 3979 l-23 -31 31 -31 31 -31 30 29 c16 16 30 34 30 39 0 6 -4
5 -9 -3 -6 -9 -16 -11 -27 -7 -17 7 -18 8 -3 20 14 10 15 15 4 29 -18 25 -38
21 -64 -14z"/>
<path d="M4782 3887 l-32 -33 35 -34 35 -34 29 34 c16 19 26 40 23 45 -4 6 -8
2 -10 -7 -2 -10 -10 -18 -18 -18 -16 0 -19 26 -4 35 11 7 -5 45 -18 45 -5 0
-22 -15 -40 -33z"/>
<path d="M4581 3885 c-39 -33 -39 -44 -1 -80 l30 -29 30 29 c37 36 37 44 1 79
l-28 27 -32 -26z m79 -41 c0 -17 -22 -14 -28 4 -2 7 3 12 12 12 9 0 16 -7 16
-16z"/>
<path d="M4875 3790 l-29 -30 34 -35 34 -35 32 31 33 32 -27 33 c-15 19 -32
34 -38 34 -5 0 -23 -14 -39 -30z m80 -40 c-5 -8 -11 -8 -17 -2 -6 6 -7 16 -3
22 5 8 11 8 17 2 6 -6 7 -16 3 -22z"/>
<path d="M4677 3782 c-15 -15 -27 -33 -27 -38 0 -17 60 -69 68 -58 4 5 18 21
31 37 l25 27 -29 30 c-16 17 -32 30 -35 30 -3 0 -18 -13 -33 -28z m79 -23 c10
-17 -13 -36 -27 -22 -12 12 -4 33 11 33 5 0 12 -5 16 -11z"/>
<path d="M4472 3767 l-32 -33 33 -32 33 -32 35 37 c18 20 26 31 16 23 -22 -17
-49 2 -29 22 7 7 8 17 1 30 -13 25 -20 23 -57 -15z"/>
<path d="M4766 3681 l-27 -28 26 -32 c33 -39 44 -39 80 -1 l29 30 -29 30 c-36
37 -44 37 -79 1z m90 -22 c10 -17 -13 -36 -27 -22 -12 12 -4 33 11 33 5 0 12
-5 16 -11z"/>
<path d="M4565 3670 l-29 -30 29 -30 c16 -16 34 -30 39 -29 15 0 60 58 52 66
-3 4 -6 1 -6 -5 0 -7 -7 -12 -15 -12 -8 0 -15 7 -15 15 0 8 5 15 10 15 6 0 5
8 -2 20 -17 27 -29 25 -63 -10z"/>
<path d="M4667 3582 c-34 -35 -34 -42 3 -77 l30 -29 30 29 c17 16 30 34 30 40
0 11 -51 65 -61 65 -3 0 -17 -13 -32 -28z m81 -34 c-6 -18 -28 -21 -28 -4 0 9
7 16 16 16 9 0 14 -5 12 -12z"/>
</g>
</svg>
