<?xml version="1.0" standalone="no"?>
<!DOCTYPE svg PUBLIC "-//W3C//DTD SVG 20010904//EN"
 "http://www.w3.org/TR/2001/REC-SVG-20010904/DTD/svg10.dtd">
<svg version="1.0" xmlns="http://www.w3.org/2000/svg"
 width="512.000000pt" height="512.000000pt" viewBox="0 0 512.000000 512.000000"
 preserveAspectRatio="xMidYMid meet">

<g transform="translate(0.000000,512.000000) scale(0.100000,-0.100000)"
fill="#000000" stroke="none">
<path d="M2355 5110 c-373 -32 -746 -148 -1067 -331 -49 -28 -92 -58 -95 -66
-3 -8 2 -95 12 -193 18 -179 18 -179 44 -184 14 -3 120 -15 235 -28 133 -14
201 -24 185 -29 -13 -4 -116 -17 -229 -29 -113 -12 -208 -25 -211 -28 -4 -4
-17 -107 -30 -230 -12 -122 -26 -219 -30 -215 -3 5 -17 106 -29 226 -14 127
-28 220 -34 223 -6 2 -96 12 -201 24 -104 11 -202 22 -216 25 -23 3 -36 -7
-99 -83 -296 -357 -497 -817 -566 -1297 -24 -166 -24 -506 0 -670 57 -392 195
-761 404 -1075 78 -117 235 -318 262 -335 5 -3 -18 48 -50 112 -111 225 -174
434 -206 685 -22 177 -15 483 15 640 88 463 290 841 622 1163 342 332 758 531
1239 591 398 49 821 -25 1197 -211 81 -40 172 -89 202 -108 l54 -34 101 47
c312 147 553 192 693 130 176 -78 211 -279 102 -604 -35 -106 -168 -388 -180
-380 -4 2 10 -33 32 -80 89 -190 158 -448 180 -672 14 -145 6 -422 -16 -554
-37 -222 -108 -439 -205 -628 -32 -62 -52 -108 -43 -101 41 34 184 218 265
339 209 314 347 683 404 1075 24 164 24 504 0 670 -81 563 -342 1093 -724
1469 l-70 68 -176 -20 c-97 -11 -180 -22 -183 -26 -3 -3 -17 -109 -31 -236
-14 -126 -27 -228 -29 -227 -1 2 -14 107 -29 233 -14 126 -27 231 -29 233 -3
2 -108 15 -235 29 -126 14 -228 27 -226 29 2 3 107 16 232 29 126 14 229 26
230 27 1 1 7 47 13 102 6 55 14 114 16 132 l6 31 -163 80 c-350 172 -687 256
-1072 266 -94 3 -216 1 -271 -4z m125 -345 l34 -35 -39 -40 -39 -40 -33 32
c-18 18 -33 36 -33 42 0 11 60 76 70 76 3 0 21 -16 40 -35z m490 -380 c0 -6
-16 -26 -35 -45 l-35 -34 -37 37 -37 37 39 40 39 40 33 -32 c18 -18 33 -37 33
-43z m-2560 -1480 l34 -35 -37 -38 -37 -37 -37 37 -37 38 34 35 c19 19 37 35
40 35 3 0 21 -16 40 -35z m4543 -467 l-37 -38 -38 37 -38 37 37 38 37 38 38
-37 38 -37 -37 -38z"/>
<path d="M3926 4618 c7 -61 14 -112 16 -113 4 -4 270 -35 299 -35 16 0 8 11
-41 53 -63 53 -210 161 -259 190 l-27 16 12 -111z"/>
<path d="M1064 4634 c-106 -75 -223 -176 -314 -269 l-75 -77 45 6 c25 3 115
13 200 21 85 9 164 18 176 20 20 4 22 17 39 175 9 94 15 173 13 176 -3 2 -41
-21 -84 -52z"/>
<path d="M4325 3773 c-95 -13 -269 -72 -407 -138 l-77 -37 87 -72 c176 -148
357 -357 463 -534 l43 -73 39 78 c135 267 194 515 155 646 -31 103 -146 152
-303 130z m43 -430 c-18 -18 -36 -33 -42 -33 -6 0 -25 14 -43 32 l-33 32 37
38 37 38 38 -37 38 -37 -32 -33z"/>
<path d="M2383 3048 c-23 -24 -50 -61 -62 -83 -21 -40 -27 -70 -13 -63 4 2 32
16 63 32 l56 29 -1 63 c0 35 -1 64 -1 64 -1 0 -19 -19 -42 -42z"/>
<path d="M2380 2881 c-76 -41 -85 -49 -88 -77 -5 -49 34 -139 82 -188 55 -56
114 -86 180 -93 l51 -5 49 94 50 94 -35 43 c-31 39 -191 183 -200 180 -2 -1
-42 -22 -89 -48z"/>
<path d="M2705 2597 c-26 -46 -31 -63 -20 -65 28 -6 135 61 155 98 9 17 7 18
-19 10 -20 -5 -38 -4 -55 5 -25 13 -26 12 -61 -48z"/>
</g>
</svg>
