<?xml version="1.0" standalone="no"?>
<!DOCTYPE svg PUBLIC "-//W3C//DTD SVG 20010904//EN"
 "http://www.w3.org/TR/2001/REC-SVG-20010904/DTD/svg10.dtd">
<svg version="1.0" xmlns="http://www.w3.org/2000/svg"
 width="512.000000pt" height="512.000000pt" viewBox="0 0 512.000000 512.000000"
 preserveAspectRatio="xMidYMid meet">

<g transform="translate(0.000000,512.000000) scale(0.100000,-0.100000)"
fill="#000000" stroke="none">
<path d="M2420 5114 c-534 -36 -988 -205 -1420 -528 -110 -82 -350 -317 -436
-426 -289 -367 -473 -797 -540 -1265 -24 -165 -24 -505 0 -670 40 -280 122
-547 241 -790 378 -769 1097 -1287 1960 -1411 165 -24 505 -24 670 0 468 67
898 251 1265 540 109 86 344 326 426 436 192 255 315 491 407 776 86 265 120
490 120 784 0 378 -67 699 -218 1043 -45 100 -155 307 -165 307 -3 0 -18 -24
-34 -53 -50 -88 -165 -257 -253 -369 -90 -116 -102 -139 -198 -383 -184 -468
-294 -1018 -295 -1475 0 -142 -19 -232 -66 -330 -33 -67 -61 -99 -268 -308
-127 -128 -241 -235 -253 -239 -100 -25 -397 157 -672 412 l-83 77 -192 -191
c-132 -131 -199 -191 -214 -191 -12 0 -36 13 -54 29 l-33 30 -86 -85 c-65 -63
-93 -84 -113 -84 -15 0 -42 -11 -60 -25 -51 -39 -137 -74 -202 -83 -59 -7
-159 0 -172 13 -4 4 -7 50 -7 103 1 111 23 181 80 256 23 30 32 51 28 65 -4
17 14 41 83 111 l88 90 -29 30 -29 30 -86 -85 c-65 -65 -92 -85 -113 -85 -15
0 -46 -15 -72 -34 -72 -55 -146 -79 -247 -80 -117 -1 -123 5 -122 122 1 101
25 175 80 247 19 26 34 57 34 72 0 21 20 48 85 113 l85 86 -38 37 -38 37 -84
-85 c-67 -67 -91 -85 -113 -85 -17 0 -42 -11 -59 -25 -74 -62 -200 -99 -299
-89 -84 9 -84 10 -84 116 0 111 18 171 76 252 22 31 39 61 38 68 -4 31 6 45
82 124 l81 83 -21 27 c-11 15 -21 36 -21 47 0 14 67 88 192 213 l191 193 -78
83 c-248 263 -437 570 -412 669 3 13 108 125 239 255 199 197 244 236 305 268
94 48 180 66 323 66 119 0 393 21 521 40 367 55 688 142 1029 280 204 83 211
87 327 178 104 82 287 207 361 247 28 15 52 31 52 34 0 11 -202 119 -307 166
-237 104 -458 166 -713 200 -110 14 -376 25 -470 19z m-226 -515 c15 -21 44
-50 67 -64 53 -34 51 -67 -5 -106 -21 -14 -51 -44 -65 -65 -39 -56 -72 -58
-106 -5 -14 23 -43 52 -64 67 -52 34 -58 60 -21 93 37 33 62 58 99 98 36 40
60 35 95 -18z m2166 -2159 c10 -5 27 -25 38 -44 11 -19 39 -47 62 -61 54 -34
53 -67 -4 -106 -21 -14 -51 -44 -65 -65 -39 -57 -72 -58 -106 -4 -14 23 -42
51 -61 62 -48 28 -60 53 -40 83 9 14 30 32 46 40 16 8 36 28 45 45 12 24 50
60 63 60 2 0 12 -4 22 -10z"/>
</g>
</svg>
