<?xml version="1.0" standalone="no"?>
<!DOCTYPE svg PUBLIC "-//W3C//DTD SVG 20010904//EN"
 "http://www.w3.org/TR/2001/REC-SVG-20010904/DTD/svg10.dtd">
<svg version="1.0" xmlns="http://www.w3.org/2000/svg"
 width="512.000000pt" height="512.000000pt" viewBox="0 0 512.000000 512.000000"
 preserveAspectRatio="xMidYMid meet">

<g transform="translate(0.000000,512.000000) scale(0.100000,-0.100000)"
fill="#000000" stroke="none">
<path d="M3655 4266 c-60 -35 -110 -69 -110 -77 0 -12 340 -219 360 -219 21 0
230 128 230 141 0 13 -339 219 -360 219 -5 0 -59 -29 -120 -64z"/>
<path d="M3405 4126 c-22 -13 -73 -42 -114 -66 -71 -41 -73 -43 -55 -60 34
-31 332 -200 354 -200 35 0 245 124 235 140 -8 13 -350 210 -366 210 -8 0 -32
-11 -54 -24z"/>
<path d="M4091 4006 c-58 -34 -106 -66 -108 -71 -4 -12 339 -215 364 -215 27
0 233 119 233 134 0 17 -338 216 -365 215 -11 -1 -67 -29 -124 -63z"/>
<path d="M3018 3898 c-60 -34 -108 -67 -108 -73 0 -13 343 -215 365 -215 23 0
235 123 235 136 0 15 -340 214 -366 214 -10 0 -67 -28 -126 -62z"/>
<path d="M1779 3896 c-96 -28 -171 -77 -274 -180 -148 -149 -237 -321 -271
-522 -30 -175 9 -321 103 -387 36 -26 42 -36 48 -77 l6 -46 106 -61 105 -61
113 68 c126 76 141 77 176 10 36 -67 26 -87 -67 -140 -30 -18 -54 -33 -52 -35
2 -2 86 -51 188 -110 102 -59 188 -112 192 -119 4 -6 8 -38 8 -71 l0 -60 93
-54 c50 -30 155 -91 233 -137 161 -96 209 -111 309 -93 33 6 66 13 72 17 5 4
13 30 17 58 l6 52 -81 48 c-104 61 -135 87 -161 138 -42 79 -33 285 17 399 4
10 3 17 -3 17 -20 0 -75 -55 -89 -89 l-15 -35 -14 39 c-15 45 -55 85 -85 85
-30 0 -22 15 16 29 38 14 75 54 75 82 0 31 15 22 29 -17 12 -33 60 -74 88 -74
6 0 30 35 53 77 79 148 183 254 309 316 54 26 77 32 131 32 62 0 71 -3 155
-53 98 -59 97 -59 164 -2 l33 28 -16 50 c-10 28 -31 69 -47 92 -29 40 -110
100 -136 100 -7 0 -13 4 -13 9 0 9 -71 52 -644 391 -197 117 -375 219 -395
227 -27 12 -60 14 -128 11 -88 -5 -94 -4 -144 25 -61 34 -140 43 -210 23z"/>
<path d="M3775 3829 c-55 -32 -101 -65 -103 -72 -4 -19 345 -220 372 -213 31
8 219 119 223 132 5 16 -338 214 -368 213 -13 -1 -69 -28 -124 -60z"/>
<path d="M3465 3644 c-60 -35 -110 -69 -110 -75 0 -11 341 -218 360 -219 20 0
230 126 232 140 2 10 -56 50 -169 115 -95 55 -179 101 -188 102 -8 1 -64 -27
-125 -63z"/>
<path d="M4233 3210 c-522 -137 -1055 -789 -1205 -1475 -19 -85 -22 -131 -23
-310 0 -189 2 -218 23 -288 61 -211 176 -345 345 -399 94 -31 244 -29 361 6
490 146 988 740 1156 1379 96 362 72 684 -64 890 -67 100 -156 166 -275 201
-75 22 -226 20 -318 -4z m348 -107 c121 -60 208 -186 245 -353 20 -92 23 -313
5 -420 -91 -542 -428 -1081 -852 -1365 -158 -107 -302 -156 -453 -156 -218 0
-358 124 -428 379 -31 112 -31 355 0 500 131 608 583 1218 1034 1396 119 47
166 56 278 53 96 -2 112 -5 171 -34z"/>
<path d="M3849 2250 c-80 -42 -149 -166 -149 -265 0 -70 16 -100 60 -110 34
-7 105 20 133 53 18 20 18 21 -40 54 -44 26 -59 40 -61 60 -4 36 22 85 56 102
25 13 31 12 84 -19 31 -18 59 -31 62 -28 3 4 6 32 6 63 0 102 -60 138 -151 90z"/>
<path d="M4299 2021 c-90 -18 -166 -91 -190 -181 -48 -181 138 -343 309 -270
148 64 189 240 85 367 -21 25 -114 81 -146 87 -12 2 -38 1 -58 -3z"/>
<path d="M1068 2638 c-60 -34 -108 -67 -108 -73 0 -13 343 -215 365 -215 23 0
235 123 235 136 0 15 -340 214 -366 214 -10 0 -67 -28 -126 -62z"/>
<path d="M755 2457 c-60 -34 -111 -69 -113 -77 -2 -10 55 -49 172 -118 97 -56
180 -102 186 -102 25 0 249 131 244 143 -4 11 -326 198 -364 211 -8 3 -64 -22
-125 -57z"/>
<path d="M1515 2384 c-60 -35 -110 -69 -110 -75 0 -15 345 -219 365 -216 33 5
230 123 230 137 0 15 -329 213 -360 217 -8 1 -64 -27 -125 -63z"/>
<path d="M446 2277 c-60 -34 -111 -67 -113 -74 -4 -10 134 -97 322 -203 l41
-23 117 67 c64 37 117 71 117 76 0 4 -6 12 -12 18 -27 22 -341 202 -351 202
-7 0 -61 -28 -121 -63z"/>
<path d="M1198 2197 c-64 -37 -107 -68 -105 -76 2 -15 331 -212 357 -214 19
-1 240 121 240 133 0 12 -15 22 -188 124 -90 53 -171 96 -180 95 -10 -1 -65
-29 -124 -62z"/>
<path d="M887 2016 c-114 -62 -123 -69 -105 -84 32 -26 341 -202 355 -202 30
0 234 121 231 137 -4 19 -333 203 -362 202 -11 0 -65 -24 -119 -53z"/>
</g>
</svg>
