<?xml version="1.0" standalone="no"?>
<!DOCTYPE svg PUBLIC "-//W3C//DTD SVG 20010904//EN"
 "http://www.w3.org/TR/2001/REC-SVG-20010904/DTD/svg10.dtd">
<svg version="1.0" xmlns="http://www.w3.org/2000/svg"
 width="256.000000pt" height="256.000000pt" viewBox="0 0 256.000000 256.000000"
 preserveAspectRatio="xMidYMid meet">

<g transform="translate(0.000000,256.000000) scale(0.100000,-0.100000)"
fill="#000000" stroke="none">
<path d="M1153 2520 c-89 -11 -213 -43 -302 -76 -56 -21 -206 -96 -221 -110
-2 -3 110 -119 249 -258 267 -267 277 -281 237 -325 -22 -25 -21 -33 17 -69
l33 -32 54 56 c94 96 148 104 225 33 l42 -39 23 25 23 24 -48 53 c-70 77 -92
115 -111 187 -26 102 2 210 76 294 66 76 29 102 467 -335 217 -216 399 -401
404 -410 11 -21 -35 -78 -93 -114 -52 -33 -151 -58 -202 -50 -90 14 -137 37
-206 102 -37 35 -72 64 -77 64 -5 0 -19 -10 -31 -23 l-22 -23 35 -34 c74 -72
68 -133 -20 -220 -30 -30 -55 -59 -55 -64 0 -14 52 -66 66 -66 6 0 17 7 24 15
7 8 27 15 44 15 27 0 63 -31 301 -270 l269 -269 30 47 c136 219 198 563 151
835 -90 515 -491 926 -997 1022 -103 19 -290 27 -385 15z m-37 -89 c16 -33 32
-49 65 -65 64 -31 64 -57 0 -84 -43 -18 -51 -26 -62 -61 -20 -67 -62 -66 -85
2 -7 23 -23 39 -59 57 -27 14 -50 31 -53 38 -6 19 16 40 48 47 32 7 54 29 65
65 19 64 51 64 81 1z"/>
<path d="M382 2317 c-34 -34 -62 -68 -62 -76 0 -17 108 -129 132 -137 16 -5
36 9 89 62 38 38 69 72 69 77 0 19 -124 137 -144 137 -13 0 -46 -25 -84 -63z"/>
<path d="M182 2117 c-36 -36 -62 -71 -62 -83 0 -23 119 -144 141 -144 18 0
139 131 139 150 0 20 -121 140 -141 140 -8 0 -43 -28 -77 -63z"/>
<path d="M592 2117 c-34 -34 -62 -71 -62 -82 0 -26 109 -135 135 -135 24 0
145 118 145 141 0 19 -121 139 -141 139 -8 0 -43 -28 -77 -63z"/>
<path d="M386 1911 c-53 -53 -67 -73 -62 -89 8 -25 120 -132 138 -132 7 0 44
31 82 69 57 58 66 72 58 87 -12 24 -127 134 -139 134 -5 0 -39 -31 -77 -69z"/>
<path d="M796 1911 c-53 -53 -67 -73 -62 -89 8 -25 120 -132 138 -132 22 0
138 123 138 146 0 20 -118 144 -137 144 -5 0 -39 -31 -77 -69z"/>
<path d="M155 1778 c-34 -75 -63 -167 -87 -273 -8 -39 -13 -124 -12 -240 1
-168 3 -188 32 -298 88 -336 311 -623 612 -790 273 -150 603 -191 913 -113 85
22 220 72 257 96 12 8 -38 63 -247 272 -279 279 -288 292 -243 333 20 19 20
19 -17 57 l-37 38 -176 -175 c-176 -174 -176 -175 -221 -175 -25 0 -56 7 -69
16 -37 25 -297 283 -331 328 -22 30 -29 50 -29 84 l0 46 175 176 175 176 -38
37 c-38 37 -38 37 -57 17 -41 -45 -55 -35 -310 220 -132 132 -244 240 -248
240 -5 0 -23 -33 -42 -72z m158 -403 c9 -8 18 -29 22 -46 6 -25 16 -35 57 -52
42 -17 49 -24 46 -45 -2 -20 -12 -29 -44 -39 -36 -12 -45 -21 -62 -63 -28 -67
-55 -68 -83 -4 -17 37 -29 50 -65 66 -39 17 -45 23 -42 45 2 21 12 29 44 40
36 12 45 21 62 63 22 52 39 61 65 35z m966 -1010 c15 -35 28 -47 66 -64 38
-17 46 -25 43 -43 -2 -16 -15 -27 -48 -39 -39 -14 -47 -23 -61 -60 -13 -34
-22 -45 -41 -47 -21 -3 -28 4 -45 45 -16 40 -27 50 -59 62 -71 25 -72 54 -4
83 41 17 51 26 61 57 23 72 58 74 88 6z"/>
<path d="M588 1707 c-38 -34 -68 -69 -68 -76 0 -22 121 -141 144 -141 25 0
146 117 146 141 0 19 -121 139 -140 139 -8 0 -45 -28 -82 -63z"/>
<path d="M937 1572 c-31 -32 -57 -62 -57 -68 0 -5 15 -24 33 -42 l33 -32 62
63 62 63 -38 37 -38 37 -57 -58z"/>
<path d="M1482 1017 l-62 -63 38 -37 38 -37 62 63 62 63 -38 37 -38 37 -62
-63z"/>
<path d="M1742 956 c-34 -35 -62 -70 -62 -77 0 -19 125 -139 145 -139 20 0
145 120 145 139 0 23 -122 141 -145 141 -14 0 -45 -24 -83 -64z"/>
<path d="M1542 757 c-36 -36 -62 -71 -62 -83 0 -22 119 -144 140 -144 22 0
140 122 140 144 0 25 -117 146 -141 146 -8 0 -43 -28 -77 -63z"/>
<path d="M1952 757 c-36 -36 -62 -71 -62 -83 0 -19 118 -144 135 -144 15 0
145 134 145 149 0 21 -120 141 -141 141 -8 0 -43 -28 -77 -63z"/>
<path d="M1749 553 c-38 -36 -69 -73 -69 -81 0 -22 123 -142 145 -142 18 0
144 127 145 146 0 11 -133 144 -145 144 -4 0 -38 -30 -76 -67z"/>
<path d="M2156 551 c-77 -77 -78 -86 -20 -142 l36 -34 58 64 c32 34 64 74 71
88 13 23 11 27 -24 59 -20 19 -40 34 -45 34 -4 0 -38 -31 -76 -69z"/>
<path d="M1948 345 c-38 -36 -68 -69 -68 -75 0 -5 13 -24 29 -42 l29 -32 55
36 c30 20 72 51 92 69 l36 32 -37 39 c-21 21 -45 38 -54 38 -8 0 -45 -29 -82
-65z"/>
</g>
</svg>
